<?xml version="1.0" encoding="UTF-8"?>
<!DOCTYPE svg PUBLIC "-//W3C//DTD SVG 1.1//EN" "http://www.w3.org/Graphics/SVG/1.1/DTD/svg11.dtd">
<!-- Creator: CorelDRAW 2021 (64-Bit) -->
<svg xmlns="http://www.w3.org/2000/svg" xml:space="preserve" width="1.52215in" height="0.767173in" version="1.1" style="shape-rendering:geometricPrecision; text-rendering:geometricPrecision; image-rendering:optimizeQuality; fill-rule:evenodd; clip-rule:evenodd"
viewBox="0 0 395.48 199.32"
 xmlns:xlink="http://www.w3.org/1999/xlink"
 xmlns:xodm="http://www.corel.com/coreldraw/odm/2003">
 <defs>
  <style type="text/css">
   <![CDATA[
    .fil4 {fill:none}
    .fil3 {fill:#00B7AB}
    .fil2 {fill:red}
    .fil1 {fill:#FFB626}
    .fil0 {fill:black;fill-rule:nonzero}
   ]]>
  </style>
   <clipPath id="id0">
    <path d="M274.88 101.13c24.17,0 43.76,19.59 43.76,43.76 0,24.17 -19.59,43.76 -43.76,43.76 -24.17,0 -43.76,-19.59 -43.76,-43.76 0,-24.17 19.59,-43.76 43.76,-43.76zm0 20.43c12.88,0 23.33,10.45 23.33,23.33 0,12.88 -10.45,23.33 -23.33,23.33 -12.88,0 -23.33,-10.45 -23.33,-23.33 0,-12.88 10.45,-23.33 23.33,-23.33z"/>
   </clipPath>
 </defs>
 <g id="Layer_x0020_1">
  <metadata id="CorelCorpID_0Corel-Layer"/>
  <path class="fil0" d="M109.57 80.31c-5.88,0 -10.68,-1.36 -14.4,-4.08 -3.72,-2.72 -5.8,-6.43 -6.24,-11.12l6.75 0c0.31,2.88 1.67,5.21 4.08,6.99 2.41,1.78 5.64,2.67 9.71,2.67 3.56,0 6.36,-0.84 8.39,-2.53 2.03,-1.69 3.05,-3.78 3.05,-6.28 0,-1.75 -0.56,-3.19 -1.69,-4.31 -1.13,-1.13 -2.55,-2.02 -4.27,-2.67 -1.72,-0.66 -4.05,-1.36 -6.99,-2.11 -3.81,-1 -6.91,-2 -9.29,-3 -2.38,-1 -4.39,-2.49 -6.05,-4.46 -1.66,-1.97 -2.49,-4.61 -2.49,-7.93 0,-2.5 0.75,-4.81 2.25,-6.94 1.5,-2.13 3.63,-3.82 6.38,-5.07 2.75,-1.25 5.88,-1.88 9.38,-1.88 5.5,0 9.94,1.39 13.32,4.17 3.38,2.78 5.19,6.61 5.44,11.49l-6.57 0c-0.19,-3 -1.36,-5.43 -3.52,-7.27 -2.16,-1.85 -5.11,-2.77 -8.86,-2.77 -3.31,0 -6,0.78 -8.07,2.34 -2.06,1.56 -3.1,3.5 -3.1,5.82 0,2 0.61,3.64 1.83,4.92 1.22,1.28 2.74,2.28 4.55,3 1.81,0.72 4.25,1.52 7.32,2.39 3.69,1 6.63,1.97 8.82,2.91 2.19,0.94 4.06,2.31 5.63,4.13 1.56,1.81 2.38,4.22 2.44,7.22 0,2.75 -0.75,5.21 -2.25,7.36 -1.5,2.16 -3.6,3.86 -6.28,5.11 -2.69,1.25 -5.78,1.88 -9.29,1.88zm57.88 -0.75l-21.11 -22.98 0 22.98 -6.57 0 0 -69.41 6.57 0 0 41.08 20.64 -22.89 9.19 0 -24.29 25.51 24.48 25.7 -8.91 0zm20.64 -60.88c-1.31,0 -2.44,-0.47 -3.38,-1.41 -0.94,-0.94 -1.41,-2.09 -1.41,-3.47 0,-1.38 0.47,-2.52 1.41,-3.42 0.94,-0.91 2.06,-1.36 3.38,-1.36 1.31,0 2.44,0.45 3.38,1.36 0.94,0.91 1.41,2.05 1.41,3.42 0,1.38 -0.47,2.53 -1.41,3.47 -0.94,0.94 -2.06,1.41 -3.38,1.41zm3.28 9.66l0 51.22 -6.57 0 0 -51.22 6.57 0zm21.48 -18.2l0 69.41 -6.57 0 0 -69.41 6.57 0zm21.48 0l0 69.41 -6.57 0 0 -69.41 6.57 0zm61.25 41.18c0,2.25 -0.06,3.97 -0.19,5.16l-42.49 0c0.19,3.88 1.13,7.19 2.81,9.94 1.69,2.75 3.91,4.83 6.66,6.24 2.75,1.41 5.75,2.11 9.01,2.11 4.25,0 7.83,-1.03 10.74,-3.1 2.91,-2.06 4.83,-4.85 5.77,-8.35l6.94 0c-1.25,5 -3.92,9.08 -8.02,12.24 -4.1,3.16 -9.24,4.74 -15.43,4.74 -4.82,0 -9.13,-1.08 -12.94,-3.24 -3.81,-2.16 -6.8,-5.22 -8.96,-9.19 -2.16,-3.97 -3.24,-8.61 -3.24,-13.93 0,-5.32 1.06,-9.97 3.19,-13.98 2.13,-4 5.1,-7.07 8.91,-9.19 3.81,-2.13 8.16,-3.19 13.04,-3.19 4.88,0 9.14,1.06 12.8,3.19 3.66,2.13 6.47,4.99 8.44,8.58 1.97,3.6 2.95,7.58 2.95,11.96zm-6.66 -0.19c0.06,-3.82 -0.7,-7.07 -2.3,-9.76 -1.59,-2.69 -3.77,-4.72 -6.52,-6.1 -2.75,-1.38 -5.75,-2.06 -9.01,-2.06 -4.88,0 -9.04,1.56 -12.48,4.69 -3.44,3.13 -5.35,7.53 -5.72,13.23l36.02 0zm25.23 -13.7c1.44,-3.19 3.64,-5.66 6.61,-7.41 2.97,-1.75 6.61,-2.63 10.93,-2.63l0 6.85 -1.78 0c-4.75,0 -8.57,1.28 -11.44,3.85 -2.88,2.56 -4.31,6.85 -4.31,12.85l0 28.61 -6.57 0 0 -51.22 6.57 0 0 9.1zm28.23 -23.45l7.6 0 -8.25 20.26 -4.78 0 5.44 -20.26zm35.27 66.32c-5.88,0 -10.68,-1.36 -14.4,-4.08 -3.72,-2.72 -5.8,-6.43 -6.24,-11.12l6.75 0c0.31,2.88 1.67,5.21 4.08,6.99 2.41,1.78 5.64,2.67 9.71,2.67 3.56,0 6.36,-0.84 8.39,-2.53 2.03,-1.69 3.05,-3.78 3.05,-6.28 0,-1.75 -0.56,-3.19 -1.69,-4.31 -1.13,-1.13 -2.55,-2.02 -4.27,-2.67 -1.72,-0.66 -4.05,-1.36 -6.99,-2.11 -3.81,-1 -6.91,-2 -9.29,-3 -2.38,-1 -4.39,-2.49 -6.05,-4.46 -1.66,-1.97 -2.49,-4.61 -2.49,-7.93 0,-2.5 0.75,-4.81 2.25,-6.94 1.5,-2.13 3.63,-3.82 6.38,-5.07 2.75,-1.25 5.88,-1.88 9.38,-1.88 5.5,0 9.94,1.39 13.32,4.17 3.38,2.78 5.19,6.61 5.44,11.49l-6.57 0c-0.19,-3 -1.36,-5.43 -3.52,-7.27 -2.16,-1.85 -5.11,-2.77 -8.86,-2.77 -3.31,0 -6,0.78 -8.07,2.34 -2.06,1.56 -3.1,3.5 -3.1,5.82 0,2 0.61,3.64 1.83,4.92 1.22,1.28 2.74,2.28 4.55,3 1.81,0.72 4.25,1.52 7.32,2.39 3.69,1 6.63,1.97 8.82,2.91 2.19,0.94 4.06,2.31 5.63,4.13 1.56,1.81 2.38,4.22 2.44,7.22 0,2.75 -0.75,5.21 -2.25,7.36 -1.5,2.16 -3.6,3.86 -6.28,5.11 -2.69,1.25 -5.78,1.88 -9.29,1.88z"/>
  <path class="fil0" d="M123.54 188.88c-5.69,0 -10.79,-1.01 -15.28,-3.03 -4.5,-2.02 -8.02,-4.83 -10.58,-8.41 -2.56,-3.59 -3.88,-7.73 -3.96,-12.44l12 0c0.41,4.04 2.08,7.44 5.01,10.21 2.93,2.76 7.2,4.14 12.81,4.14 5.36,0 9.59,-1.34 12.68,-4.02 3.09,-2.68 4.64,-6.13 4.64,-10.33 0,-3.3 -0.91,-5.98 -2.72,-8.04 -1.82,-2.06 -4.08,-3.63 -6.81,-4.7 -2.72,-1.07 -6.39,-2.23 -11.01,-3.46 -5.69,-1.49 -10.25,-2.97 -13.67,-4.45 -3.42,-1.49 -6.35,-3.82 -8.79,-6.99 -2.43,-3.18 -3.65,-7.45 -3.65,-12.81 0,-4.7 1.2,-8.87 3.59,-12.5 2.39,-3.63 5.75,-6.43 10.08,-8.41 4.33,-1.98 9.3,-2.97 14.91,-2.97 8.09,0 14.71,2.02 19.86,6.06 5.16,4.04 8.06,9.4 8.72,16.09l-12.37 0c-0.41,-3.3 -2.15,-6.21 -5.2,-8.72 -3.05,-2.52 -7.09,-3.77 -12.13,-3.77 -4.7,0 -8.54,1.22 -11.51,3.65 -2.97,2.43 -4.45,5.84 -4.45,10.21 0,3.14 0.89,5.69 2.66,7.67 1.77,1.98 3.96,3.49 6.56,4.52 2.6,1.03 6.25,2.21 10.95,3.53 5.69,1.57 10.27,3.11 13.74,4.64 3.46,1.53 6.44,3.88 8.91,7.05 2.47,3.18 3.71,7.49 3.71,12.93 0,4.21 -1.11,8.17 -3.34,11.88 -2.23,3.71 -5.53,6.72 -9.9,9.03 -4.37,2.31 -9.53,3.46 -15.47,3.46z"/>
  <polygon class="fil0" points="221.91,101.77 221.91,110.93 198.4,110.93 198.4,188.02 187.14,188.02 187.14,110.93 163.51,110.93 163.51,101.77 "/>
  <path class="fil0" d="M390.7 127.01c0,7.18 -2.45,13.14 -7.36,17.88 -4.91,4.74 -12.39,7.12 -22.46,7.12l-16.58 0 0 36.01 -11.26 0 0 -86.25 27.84 0c9.73,0 17.14,2.35 22.21,7.05 5.07,4.7 7.61,10.77 7.61,18.19zm-29.82 15.71c6.27,0 10.89,-1.36 13.86,-4.08 2.97,-2.72 4.45,-6.6 4.45,-11.63 0,-10.64 -6.1,-15.96 -18.31,-15.96l-16.58 0 0 31.68 16.58 0z"/>
  <path class="fil1" d="M-0 16l1.85 -16 26.99 18.18 15.53 0.14 25.88 -17.02 1.85 13.54 -26.62 31.72 25.83 115.31 -34.43 37.46 -34.62 -38.66 24.15 -112.84 -26.4 -31.82zm36.75 154.98c1.29,-1.47 2.88,-4.47 4.08,-6.26 2.05,-3.04 10.82,-16.89 11.91,-19.57 4.95,-12.14 -4.52,-23.62 -15.82,-23.74 -11.46,-0.12 -20.85,11.53 -16.19,23.53 1.14,2.94 14.55,24.05 16.03,26.03zm-1.63 -39.71c-3.61,0.91 -6.81,4.4 -5.73,9.16 2.18,9.58 17.23,6.36 14.76,-3.61 -0.84,-3.42 -4.7,-6.64 -9.04,-5.55z"/>
  <g>
  </g>
  <g style="clip-path:url(#id0)">
   <g>
    <g id="_2128718352592">
     <rect class="fil2" x="156.05" y="91.49" width="118.73" height="106.8"/>
     <rect class="fil3" x="274.97" y="91.49" width="118.73" height="106.8"/>
    </g>
   </g>
  </g>
  <path class="fil4" d="M274.88 101.13c24.17,0 43.76,19.59 43.76,43.76 0,24.17 -19.59,43.76 -43.76,43.76 -24.17,0 -43.76,-19.59 -43.76,-43.76 0,-24.17 19.59,-43.76 43.76,-43.76zm0 20.43c12.88,0 23.33,10.45 23.33,23.33 0,12.88 -10.45,23.33 -23.33,23.33 -12.88,0 -23.33,-10.45 -23.33,-23.33 0,-12.88 10.45,-23.33 23.33,-23.33z"/>
 </g>
</svg>
